<?xml version="1.0" standalone="no"?>
<!DOCTYPE svg PUBLIC "-//W3C//DTD SVG 20010904//EN"
 "http://www.w3.org/TR/2001/REC-SVG-20010904/DTD/svg10.dtd">
<svg version="1.0" xmlns="http://www.w3.org/2000/svg"
 width="512.000000pt" height="512.000000pt" viewBox="0 0 512.000000 512.000000"
 preserveAspectRatio="xMidYMid meet">
<metadata>
Created by potrace 1.14, written by Peter Selinger 2001-2017
</metadata>
<g transform="translate(0.000000,512.000000) scale(0.100000,-0.100000)"
fill="#000000" stroke="none">
<path d="M2378 5115 c-2 -1 -34 -5 -73 -9 -38 -3 -97 -10 -130 -16 -33 -6 -76
-13 -95 -16 -69 -11 -237 -56 -352 -94 -226 -76 -455 -193 -651 -334 -103 -74
-98 -72 -96 -39 3 51 -12 158 -26 180 -17 26 -66 38 -94 23 -38 -20 -46 -47
-55 -175 -3 -38 -8 -106 -12 -150 l-7 -80 -58 -60 c-393 -409 -619 -865 -705
-1425 -20 -126 -26 -501 -11 -640 54 -483 250 -950 561 -1337 414 -513 1069
-867 1721 -930 151 -15 583 -7 614 11 3 2 29 6 58 10 28 3 57 8 65 10 7 3 30
7 50 10 130 19 430 121 583 198 120 60 276 147 285 158 3 3 34 25 70 50 211
142 438 362 598 580 71 96 76 103 125 185 200 330 312 658 361 1065 12 98 14
498 3 545 -3 11 -8 45 -11 75 -56 450 -270 930 -575 1292 -241 286 -493 484
-837 657 -67 34 -125 61 -129 61 -4 0 -21 6 -38 14 -137 62 -421 138 -607 162
-25 3 -56 8 -70 10 -27 6 -456 14 -462 9z"/>
</g>
</svg>
